<svg xmlns="http://www.w3.org/2000/svg" xmlns:xlink="http://www.w3.org/1999/xlink" version="1.1" width="256" height="256" viewBox="0 0 256 256" xml:space="preserve">

<defs>
</defs>
<g style="stroke: none; stroke-width: 0; stroke-dasharray: none; stroke-linecap: butt; stroke-linejoin: miter; stroke-miterlimit: 10; fill: none; fill-rule: nonzero; opacity: 1;" transform="translate(1.4065934065934016 1.4065934065934016) scale(2.81 2.81)" >
	<path d="M 45 0 C 20.147 0 0 20.147 0 45 c 0 24.853 20.147 45 45 45 s 45 -20.147 45 -45 C 90 20.147 69.853 0 45 0 z M 24.141 63.678 c -0.348 0 -0.695 -0.091 -1.005 -0.271 c -0.616 -0.357 -0.995 -1.017 -0.995 -1.729 V 28.323 c 0 -0.712 0.379 -1.371 0.995 -1.729 c 0.616 -0.358 1.375 -0.362 1.994 -0.009 l 29.322 16.677 c 0.625 0.355 1.011 1.019 1.011 1.738 s -0.386 1.383 -1.011 1.738 L 25.129 63.416 C 24.823 63.591 24.481 63.678 24.141 63.678 z M 72.849 46.738 L 43.526 63.416 c -0.312 0.178 -0.652 0.262 -0.987 0.262 c -0.696 0 -1.372 -0.363 -1.74 -1.011 c -0.546 -0.961 -0.21 -2.182 0.75 -2.728 L 67.814 45 L 41.549 30.061 c -0.96 -0.546 -1.296 -1.767 -0.75 -2.727 c 0.544 -0.96 1.767 -1.298 2.727 -0.75 l 29.322 16.677 c 0.625 0.355 1.011 1.019 1.011 1.738 S 73.474 46.383 72.849 46.738 z" style="stroke: none; stroke-width: 1; stroke-dasharray: none; stroke-linecap: butt; stroke-linejoin: miter; stroke-miterlimit: 10; fill: rgb(0,0,0); fill-rule: nonzero; opacity: 1;" transform=" matrix(1 0 0 1 0 0) " stroke-linecap="round" />
	<polygon points="26.14,58.24 49.42,45 26.14,31.76 " style="stroke: none; stroke-width: 1; stroke-dasharray: none; stroke-linecap: butt; stroke-linejoin: miter; stroke-miterlimit: 10; fill: rgb(0,0,0); fill-rule: nonzero; opacity: 1;" transform="  matrix(1 0 0 1 0 0) "/>
</g>
</svg>